<?xml version="1.0" encoding="UTF-8" standalone="no"?>
<!-- Created with Inkscape (http://www.inkscape.org/) -->

<svg
   width="172.08391mm"
   height="50.525185mm"
   viewBox="0 0 172.08391 50.525185"
   version="1.1"
   id="svg5"
   inkscape:version="1.1.1 (1:1.1+202109281949+c3084ef5ed)"
   sodipodi:docname="exo_s_b.svg"
   xmlns:inkscape="http://www.inkscape.org/namespaces/inkscape"
   xmlns:sodipodi="http://sodipodi.sourceforge.net/DTD/sodipodi-0.dtd"
   xmlns="http://www.w3.org/2000/svg"
   xmlns:svg="http://www.w3.org/2000/svg">
  <sodipodi:namedview
     id="namedview7"
     pagecolor="#ffffff"
     bordercolor="#666666"
     borderopacity="1.0"
     inkscape:pageshadow="2"
     inkscape:pageopacity="0.0"
     inkscape:pagecheckerboard="0"
     inkscape:document-units="mm"
     showgrid="false"
     showguides="true"
     inkscape:guide-bbox="true"
     inkscape:zoom="1"
     inkscape:cx="378.5"
     inkscape:cy="272.5"
     inkscape:window-width="1464"
     inkscape:window-height="800"
     inkscape:window-x="72"
     inkscape:window-y="27"
     inkscape:window-maximized="1"
     inkscape:current-layer="text7197"
     lock-margins="true"
     fit-margin-top="10"
     fit-margin-left="10"
     fit-margin-right="10"
     fit-margin-bottom="10" />
  <defs
     id="defs2" />
  <g
     inkscape:label="Layer 1"
     inkscape:groupmode="layer"
     id="layer1"
     transform="translate(-0.178031,-1.165408)">
    <g
       aria-label="EXOB"
       id="text2696"
       style="font-size:10.5833px;line-height:1.25;stroke-width:0.264583">
      <g
         aria-label="EXOS"
         id="text7197"
         style="font-size:45.1556px;font-family:Nulshock;-inkscape-font-specification:'Nulshock, Normal';stroke-width:0.0700042"
         transform="translate(-30.912062,-65.688608)">
        <path
           d="M 73.195725,76.854017 V 84.93687 H 49.985746 q -0.72249,0 -0.72249,0.767645 v 3.476981 h 23.797002 v 5.870229 H 49.263256 v 3.702759 q 0,0.812801 0.72249,0.812801 h 23.209979 v 7.811915 h -27.81585 q -4.289782,0 -4.289782,-4.24462 V 80.963177 q 0,-4.10916 4.334937,-4.10916 z"
           id="path8283"
           style="fill:#8c8c8c;fill-opacity:1" />
        <path
           d="m 117.85453,76.854017 q -0.4064,0.541867 -0.90311,0.993423 l -13.68215,13.230592 15.44322,15.352908 q 0.22578,0.22577 0.4064,0.49671 0.18062,0.22578 0.36124,0.45155 h -11.6953 q -0.31609,-0.49671 -0.72249,-0.90311 L 97.353889,96.361237 87.103568,106.47609 q -0.225778,0.22578 -0.451556,0.45156 -0.180622,0.22578 -0.361245,0.45155 H 75.543734 q 0.180622,-0.27093 0.361245,-0.45155 0.180622,-0.22578 0.451556,-0.49671 L 92.11584,91.078032 78.478848,77.84744 q -0.541867,-0.451556 -0.857956,-0.993423 h 11.379211 q 0.316089,0.496712 0.767645,0.993423 l 8.082853,8.21832 8.534409,-8.21832 q 0.27093,-0.225778 0.45156,-0.496711 0.22577,-0.270934 0.4064,-0.496712 z"
           id="path8285"
           style="fill:#8c8c8c;fill-opacity:1" />
        <path
           d="m 133.25255,107.3792 q -4.10916,0 -7.13459,-1.30951 -3.02542,-1.35467 -5.14774,-3.6576 -1.85138,-2.032 -2.88996,-4.651029 -1.03858,-2.619025 -1.03858,-5.644451 0,-3.341514 1.30952,-6.231473 1.30951,-2.889958 3.61245,-5.012271 2.032,-1.896536 4.78649,-2.935114 2.79965,-1.083735 6.50241,-1.083735 h 6.41209 q 3.70276,0 6.45725,1.083735 2.79965,1.038578 4.83165,2.935114 2.30294,2.122313 3.61245,5.012271 1.30951,2.889959 1.30951,6.231473 0,3.025426 -1.03858,5.644451 -1.03858,2.619029 -2.88996,4.651029 -2.12231,2.30293 -5.14773,3.6576 -3.02543,1.30951 -7.13459,1.30951 z m 0,-22.44233 q -2.07716,0 -3.43183,0.541867 -1.35467,0.541867 -2.34809,1.444979 -1.03858,0.993424 -1.67076,2.348092 -0.58702,1.354668 -0.58702,2.889958 0,1.399824 0.49671,2.664181 0.49671,1.219201 1.39982,2.167468 0.99343,1.083735 2.48356,1.715913 1.49014,0.632179 3.65761,0.632179 h 6.41209 q 2.16747,0 3.6576,-0.632179 1.49014,-0.632178 2.48356,-1.715913 0.90312,-0.948267 1.39983,-2.167468 0.49671,-1.264357 0.49671,-2.664181 0,-1.53529 -0.63218,-2.889958 -0.58702,-1.354668 -1.6256,-2.348092 -0.99342,-0.903112 -2.34809,-1.444979 -1.35467,-0.541867 -3.43183,-0.541867 z"
           id="path8287"
           style="fill:#8c8c8c;fill-opacity:1" />
        <path
           d="M 191.72902,84.93687 H 169.7834 q -0.76765,0 -1.2192,0.180622 -0.4064,0.135467 -0.67734,0.406401 -0.63218,0.632178 -0.63218,1.580446 0,0.993423 0.76765,1.625601 0.27093,0.225778 0.63218,0.361245 0.4064,0.09031 1.12889,0.09031 h 13.41121 q 2.57387,0 4.33494,0.767646 1.80622,0.722489 3.02543,1.986846 1.2192,1.264357 1.89653,2.889959 0.72249,1.625601 0.72249,3.431825 0,1.670758 -0.63218,3.206049 -0.58702,1.53529 -1.6256,2.75449 -1.26436,1.44498 -3.16089,2.30294 -1.85138,0.85795 -4.56072,0.85795 h -23.66153 v -7.811916 h 22.21655 q 0.94827,0 1.44498,-0.180623 0.54187,-0.225778 0.85796,-0.587022 0.49671,-0.587023 0.49671,-1.399824 0,-0.993423 -0.63218,-1.625602 -0.31609,-0.361245 -0.8128,-0.496711 -0.45156,-0.180623 -1.35467,-0.180623 h -12.41779 q -3.07058,0 -4.96711,-0.722489 -1.85138,-0.767646 -3.07058,-2.032003 -1.21921,-1.264356 -1.89654,-2.844802 -0.67733,-1.625602 -0.67733,-3.522137 0,-1.85138 0.67733,-3.476982 0.72249,-1.625601 1.94169,-2.889958 1.2192,-1.264357 3.07058,-1.986847 1.85138,-0.767645 4.92196,-0.767645 h 22.39718 z"
           id="path8289"
           style="fill:#f77215;fill-opacity:1" />
      </g>
      <g
         aria-label="EXO-B"
         id="text13321"
         style="font-size:45.1556px;font-family:Nulshock;-inkscape-font-specification:'Nulshock, Normal';stroke-width:0.0700042" />
    </g>
  </g>
</svg>
